<?xml version="1.0" encoding="UTF-8"?>
<svg viewBox="0 0 500 500" xmlns="http://www.w3.org/2000/svg">
    <path fill="#ffffff" fill-rule="evenodd" stroke="none" d="M 468.736664 470 L 31.120905 470 L 31.120905 31.483429 L 468.736664 31.483429 L 468.736664 470 Z M 450.187927 452.044739 L 48.408928 452.044739 L 48.408928 49.438721 L 450.187927 49.438721 L 450.187927 452.044739 Z M 251.667755 201.842773 L 310.863708 201.842773 L 310.863708 192.153412 C 310.863708 172.673676 308.971252 158.87149 305.186371 150.746521 C 301.401459 142.621552 293.680267 135.88446 282.022705 130.535126 C 270.365143 125.185791 256.260193 122.511108 239.707443 122.511108 C 224.567734 122.511108 211.648712 124.958679 200.949982 129.853821 C 190.251251 134.748962 182.504898 141.53653 177.710648 150.216644 C 172.916397 158.896729 170.519318 172.623169 170.519318 191.396423 C 170.519318 204.416595 172.209915 215.115143 175.591095 223.492462 C 178.972275 231.869751 183.236588 238.430206 188.384094 243.173981 C 193.531586 247.917755 204.028305 255.537964 219.874527 266.034851 C 235.720749 276.430756 245.662338 283.849121 249.6996 288.2901 C 253.635895 292.731079 255.604065 302.167999 255.604065 316.601196 C 255.604065 323.161743 254.569519 328.1073 252.500427 331.438049 C 250.431335 334.768738 247.277283 336.434113 243.038162 336.434113 C 238.799042 336.434113 235.846848 335.122009 234.181473 332.497803 C 232.516113 329.873596 231.683441 323.969208 231.683441 314.784424 L 231.683441 284.959351 L 172.487473 284.959351 L 172.487473 301.007385 C 172.487473 319.376892 174.354675 333.557556 178.089127 343.549744 C 181.823608 353.541931 189.721375 361.767761 201.782669 368.227356 C 213.843964 374.686951 228.403076 377.916718 245.46051 377.916718 C 261.003937 377.916718 274.629486 375.115906 286.337524 369.514221 C 298.045532 363.912537 305.943329 356.973602 310.031036 348.697205 C 314.118744 340.420837 316.162598 327.552307 316.162598 310.091156 C 316.162598 286.069489 312.478607 268.659058 305.110657 257.859436 C 297.742706 247.059769 279.878082 233.232391 251.516357 216.376831 C 241.625092 210.522827 235.619751 205.526794 233.500198 201.38858 C 231.279724 197.250427 230.169464 191.093689 230.169464 182.918243 C 230.169464 176.559601 231.153549 171.815857 233.121704 168.686981 C 235.089859 165.558136 237.991592 163.993683 241.826981 163.993683 C 245.359573 163.993683 247.882858 165.154388 249.396805 167.4758 C 250.910767 169.797241 251.667755 175.196991 251.667755 183.675232 L 251.667755 201.842773 Z M 123.737854 323.716827 L 123.737854 127.658569 L 60 127.658569 L 60 372.769226 L 162.495316 372.769226 L 162.495316 323.716827 L 123.737854 323.716827 Z M 399.884766 323.716827 L 399.884766 127.658569 L 336.146912 127.658569 L 336.146912 372.769226 L 438.642212 372.769226 L 438.642212 323.716827 L 399.884766 323.716827 Z"/>
</svg>
